<svg height="512.00025pt"  fill="#fff" viewBox="0 0 512.00025 512.00025" width="512.00025pt" xmlns="http://www.w3.org/2000/svg"><path d="m4.394531 486.394531c-5.859375 5.859375-5.859375 15.351563 0 21.210938s15.351563 5.859375 21.210938 0l50.394531-49.394531 49.394531 49.394531c5.859375 5.859375 15.351563 5.859375 21.210938 0s5.859375-15.351563 0-21.210938l-55.605469-55.605469c0-10.464843 0-43.335937 0-53.789062 0-39.855469 14.210938-76.453125 37.820312-105h-37.820312v-84.195312l19.746094-6.582032c6.121094-2.035156 10.253906-7.761718 10.253906-14.222656v-45h75c8.289062 0 15-6.710938 15-15 0-41.351562-33.648438-77-75-77h-15v-15c0-8.289062-6.710938-15-15-15s-15 6.710938-15 15v15h-15c-41.351562 0-76 35.648438-76 77 0 8.289062 6.710938 15 15 15h76v34.1875l-80.746094 26.589844c-7.851562 2.605468-12.101562 11.101562-9.476562 18.96875 2.605468 7.816406 11.0625 12.113281 18.96875 9.476562l41.253906-13.417968v74.195312h-46c-8.289062 0-15 6.710938-15 15v90c0 8.289062 6.710938 15 15 15h46v38.789062zm0 0"/><path d="m256 422c24.8125 0 45-20.1875 45-45s-20.1875-45-45-45-45 20.1875-45 45 20.1875 45 45 45zm0 0"/><path d="m256 512c74.441406 0 135-60.558594 135-135s-60.558594-135-135-135-135 60.558594-135 135 60.558594 135 135 135zm0-210c41.351562 0 75 33.648438 75 75s-33.648438 75-75 75-75-33.648438-75-75 33.648438-75 75-75zm0 0"/><path d="m391 197c0-8.289062-6.710938-15-15-15h-105v30.761719c29.355469 2.660156 56.382812 13.1875 79.277344 29.238281h40.722656zm0 0"/><path d="m241 182h-105c-8.289062 0-15 6.710938-15 15v45h40.722656c22.894532-16.050781 49.921875-26.578125 79.277344-29.238281zm0 0"/><path d="m497 122c8.289062 0 15-6.710938 15-15 0-41.351562-34.648438-77-76-77h-15v-15c0-8.289062-6.710938-15-15-15s-15 6.710938-15 15v15h-15c-41.351562 0-75 35.648438-75 77 0 8.289062 6.710938 15 15 15h75v45c0 6.460938 4.132812 12.1875 10.253906 14.222656l19.746094 6.582032v84.195312h-37.820312c23.609374 28.546875 37.820312 65.144531 37.820312 105v53.789062l-55.605469 55.605469c-5.859375 5.859375-5.859375 15.351563 0 21.210938s15.351563 5.859375 21.210938 0l49.394531-49.394531 50.394531 49.394531c5.859375 5.859375 15.351563 5.859375 21.210938 0s5.859375-15.351563 0-21.210938l-56.605469-55.605469v-38.789062h46c8.289062 0 15-6.710938 15-15v-90c0-8.289062-6.710938-15-15-15h-46v-74.195312l41.253906 13.417968c7.910156 2.636719 16.367188-1.664062 18.96875-9.476562 2.625-7.867188-1.625-16.363282-9.476562-18.96875l-80.746094-26.589844v-34.1875zm0 0"/></svg>