<svg id="Capa_1"  fill="#fff" enable-background="new 0 0 512 512" height="512" viewBox="0 0 512 512" width="512" xmlns="http://www.w3.org/2000/svg"><g><path d="m10.181 262.358c-7.32 2.48-11.55 10.11-9.78 17.629 5.6 23.789 22.59 43.119 45.469 51.698 35.786 13.438 60.243 20.095 87.159 47.009 15.07 15.03 26.94 33.249 34.589 53.618 13.098 34.895 15.987 48.181 32.85 63.018 13.068 11.496 29.366 16.67 34.99 16.67 6.29 0 12.09-3.98 14.19-10.18l92.909-258.802-73.709-73.708zm227.087 105.886c-5.873 5.853-15.348 5.852-21.22 0-44.491-44.502-28.007-28.016-72.559-72.568-5.86-5.86-5.86-15.349 0-21.209 5.85-5.86 15.35-5.86 21.21 0 44.491 44.49 28.003 28.005 72.569 72.558 5.85 5.86 5.85 15.36 0 21.219zm20.55-59.448c-5.845 5.845-15.368 5.861-21.21 0-20.659-20.659-12.97-12.972-33.68-33.669-5.85-5.86-5.85-15.36 0-21.219 5.86-5.85 15.36-5.85 21.22 0 20.7 20.712 13.011 13.021 33.67 33.679 5.86 5.85 5.86 15.349 0 21.209z"/><path d="m468.955 137.181c6.82 0 12.79-4.6 14.51-11.2l28.04-107.167c2.48-9.447-4.659-18.799-14.51-18.799h-42.949c-3.99 0-7.81 1.59-10.62 4.41l-13.793 13.836-13.853-13.851c-5.857-5.857-15.355-5.857-21.213 0-5.858 5.858-5.858 15.355 0 21.213l13.885 13.884-18.757 18.815-13.915-13.914c-5.857-5.857-15.355-5.857-21.213 0-5.858 5.858-5.858 15.355 0 21.213l13.947 13.946-73.377 73.603 63.669 63.668 79.659-79.658h30.49z"/><path d="m125.161 181.101c24.82 0 44.999-20.18 44.999-44.999v-84.877l18.16 18.159c5.86 5.86 15.36 5.86 21.22 0 5.85-5.86 5.85-15.349 0-21.209l-43.769-43.768c-9.428-9.427-25.61-2.724-25.61 10.61v78.667c-4.69-1.67-9.74-2.58-15-2.58-24.81 0-44.999 20.189-44.999 44.999 0 24.819 20.19 44.998 44.999 44.998z"/><path d="m507.606 335.246-43.769-43.759c-9.414-9.436-25.61-2.743-25.61 10.6v78.668c-4.69-1.67-9.74-2.57-15-2.57-24.81 0-44.999 20.179-44.999 44.999 0 24.809 20.19 44.999 44.999 44.999 24.82 0 44.999-20.189 44.999-44.999v-84.887l18.16 18.159c5.86 5.86 15.36 5.86 21.22 0 5.85-5.85 5.85-15.35 0-21.21z"/><circle cx="252.851" cy="114.819" r="15"/><circle cx="383.798" cy="291.834" r="15"/><circle cx="72.091" cy="448.179" r="15"/><circle cx="15.003" cy="57.549" r="15"/></g></svg>