<svg height="512" fill="#fff" viewBox="0 0 512 512" width="512" xmlns="http://www.w3.org/2000/svg"><g id="solid"><path d="m196.688 328h-116.916l1.28 8h114.356z"/><path d="m196.464 56h-116.469l-5.333 16h127.135z"/><path d="m436.465 56h-116.469l-5.333 16h127.135z"/><path d="m321.052 336h114.356l1.28-8h-116.916z"/><path d="m456.17 119.99c-.064 0-.126.01-.19.01h-16a8 8 0 0 1 0-16v-16h-54.217v16h.467a8 8 0 0 1 0 16h-16a7.995 7.995 0 0 1 -.467-15.976v-16.024h-56.347v16h.814a8 8 0 0 1 0 16h-13.941c-.541 2.656-1.02 5.325-1.459 8h-34.83v-8h-16v8h-30.369c-.439-2.675-.919-5.344-1.459-8h-13.942a8 8 0 0 1 0-16v-16h-56v16a8 8 0 1 1 0 16h-16a8 8 0 1 1 0-16v-16h-56v16a8 8 0 1 1 0 16h-13.941a212.875 212.875 0 0 0 -1.646 75.944l18.569 116.056h122.037l7.68-48h41.071v112h16v-112h45.532l7.68 48h122.036l18.569-116.056a212.93 212.93 0 0 0 -1.647-75.954zm-375.521 129.227-3.644-23.683a237.947 237.947 0 0 1 1.86-83.1 8 8 0 1 1 15.689 3.138 222 222 0 0 0 -1.734 77.528l3.643 23.682a8 8 0 1 1 -15.814 2.434zm15.276 46.69a7.993 7.993 0 0 1 -9.123-6.691l-1.23-8a8 8 0 1 1 15.814-2.432l1.23 8a8 8 0 0 1 -6.691 9.123zm113.564-47.907 8.329-52.056a212.227 212.227 0 0 0 1.828-51.944h28.354v104zm54.511 0v-104h32.814a212.178 212.178 0 0 0 1.829 51.944l8.329 52.056zm57.919 1.216-3.643-23.683a237.99 237.99 0 0 1 1.86-83.1 8 8 0 1 1 15.689 3.138 222 222 0 0 0 -1.734 77.532l3.642 23.683a8 8 0 1 1 -15.814 2.432zm15.281 46.691a7.993 7.993 0 0 1 -9.123-6.691l-1.23-8a8 8 0 1 1 15.814-2.432l1.231 8a8 8 0 0 1 -6.692 9.123z"/><path d="m152 432-14 14v8h32v-8l-10.941-10.941 72.941-51.059v-32l-80 64z"/><path d="m360 416-80-64v32l72.941 51.059-10.941 10.941v8h32v-8l-14-14z"/></g></svg>