<?xml version="1.0" encoding="iso-8859-1"?>
<!-- Generator: Adobe Illustrator 19.0.0, SVG Export Plug-In . SVG Version: 6.00 Build 0)  -->
<svg version="1.1"  fill="#fff" id="Capa_1" xmlns="http://www.w3.org/2000/svg" xmlns:xlink="http://www.w3.org/1999/xlink" x="0px" y="0px"
	 viewBox="0 0 490.667 490.667" style="enable-background:new 0 0 490.667 490.667;" xml:space="preserve">
<g>
	<g>
		<path d="M234.667,192C211.136,192,192,211.136,192,234.667c0,23.531,19.136,42.667,42.667,42.667
			c23.531,0,42.667-19.136,42.667-42.667C277.333,211.136,258.197,192,234.667,192z M234.667,256
			c-11.776,0-21.333-9.579-21.333-21.333c0-11.755,9.557-21.333,21.333-21.333S256,222.912,256,234.667
			C256,246.421,246.443,256,234.667,256z"/>
	</g>
</g>
<g>
	<g>
		<path d="M234.667,0C105.28,0,0,105.28,0,234.667s105.28,234.667,234.667,234.667c24.021,0,47.573-3.819,70.272-10.923
			c-3.797-7.68-6.933-15.765-8.576-24.512l-3.136-16.512c-18.88,6.059-38.507,9.28-58.56,9.28c-5.888,0-10.667-4.779-10.667-10.667
			c0-5.888,4.779-10.667,10.667-10.667c18.731,0,36.992-3.179,54.549-9.088l-4.011-21.141c-16.171,5.824-33.088,8.896-50.539,8.896
			c-5.888,0-10.667-4.779-10.667-10.667c0-5.888,4.779-10.667,10.667-10.667c16.107,0,31.68-3.115,46.485-8.896l-3.243-17.045
			c-0.363-1.835-0.576-3.925-0.576-6.059c0-17.643,14.357-32,32-32c3.733,0,7.339,0.64,10.667,1.813v-55.147
			c0-17.643,14.357-32,32-32c4.16,0,8.149,0.811,11.797,2.24C367.509,202.005,379.947,192,394.667,192s27.157,10.005,30.869,23.573
			c3.648-1.429,7.637-2.24,11.797-2.24c17.024,0,30.869,13.397,31.808,30.187c0-0.064,0.043-0.107,0.043-0.149
			c0.107-2.901,0.149-5.781,0.149-8.704C469.333,105.28,364.053,0,234.667,0z M64,234.667c0,5.888-4.779,10.667-10.667,10.667
			s-10.667-4.779-10.667-10.667c0-105.856,86.123-192,192-192c5.888,0,10.667,4.779,10.667,10.667S240.555,64,234.667,64
			C140.565,64,64,140.565,64,234.667z M106.667,234.667c0,5.888-4.779,10.667-10.667,10.667s-10.667-4.779-10.667-10.667
			c0-82.347,67.008-149.333,149.333-149.333c5.888,0,10.667,4.779,10.667,10.667s-4.779,10.667-10.667,10.667
			C164.075,106.667,106.667,164.075,106.667,234.667z M234.667,298.667c-35.285,0-64-28.715-64-64s28.715-64,64-64s64,28.715,64,64
			S269.952,298.667,234.667,298.667z"/>
	</g>
</g>
<g>
	<g>
		<path d="M480,277.333c-5.867,0-10.667,4.779-10.667,10.667v64c0,5.888-4.779,10.667-10.667,10.667S448,357.888,448,352v-94.635
			v-12.032c0-5.888-4.8-10.667-10.667-10.667c-5.867,0-10.667,4.779-10.667,10.667v41.237V352c0,5.888-4.779,10.667-10.667,10.667
			c-5.888,0-10.667-4.779-10.667-10.667v-36.224V224c0-5.888-4.8-10.667-10.667-10.667S384,218.112,384,224v120.96V352
			c0,5.888-4.779,10.667-10.667,10.667c-0.704,0-1.301-0.277-1.963-0.405c-1.216-0.235-2.368-0.683-3.413-1.259
			c-0.021-0.021-0.043-0.021-0.064-0.043c-0.96-0.555-1.813-1.28-2.56-2.112c-0.277-0.32-0.469-0.683-0.704-1.024
			c-0.448-0.619-0.896-1.259-1.195-1.984c-0.448-1.195-0.768-2.475-0.768-3.84V245.333c0-5.888-4.8-10.667-10.667-10.667
			c-5.867,0-10.667,4.779-10.667,10.667V352c0,5.888-4.779,10.667-10.667,10.667S320,357.888,320,352v-21.333
			c0-5.888-4.8-10.667-10.667-10.667c-5.867,0-10.667,4.779-10.667,10.667l18.645,99.243c6.677,35.2,37.547,60.757,73.344,60.757
			H416c41.173,0,74.667-33.493,74.667-74.667V288C490.667,282.112,485.867,277.333,480,277.333z"/>
	</g>
</g>
<g>
</g>
<g>
</g>
<g>
</g>
<g>
</g>
<g>
</g>
<g>
</g>
<g>
</g>
<g>
</g>
<g>
</g>
<g>
</g>
<g>
</g>
<g>
</g>
<g>
</g>
<g>
</g>
<g>
</g>
</svg>
