<svg id="Capa_1"  fill="#fff" enable-background="new 0 0 512 512" height="512" viewBox="0 0 512 512" width="512" xmlns="http://www.w3.org/2000/svg"><g><path d="m90.95 167c25.737 0 46.549-21.742 44.899-47.862v-48.263l8.591 4.139c7.463 3.594 16.428.461 20.023-7.004 3.596-7.464.46-16.429-7.004-20.023l-30.101-14.5c-9.948-4.792-21.51 2.471-21.51 13.514v32.546c-29.238-10.293-59.898 11.551-59.898 42.453 0 24.813 20.187 45 45 45z"/><path d="m390.95 167c24.813 0 45-20.187 45-45 0-.144-.1-51.01-.101-51.125l8.591 4.139c7.462 3.594 16.429.461 20.023-7.004 3.596-7.464.46-16.429-7.004-20.023l-30.101-14.5c-9.948-4.792-21.51 2.471-21.51 13.514v32.546c-29.238-10.293-59.898 11.551-59.898 42.453 0 24.813 20.187 45 45 45z"/><path d="m477 194h-206v-10c0-24.813-20.187-45-45-45h-.25c-8.16 0-14.8-6.639-14.8-14.8 0-8.236 6.717-14.942 15.09-14.798 73.465.523 57.627.427 59.979.427 24.803-.002 44.886-20.067 44.906-44.877.02-24.837-20.072-44.952-44.914-44.952h-10.061c-2.757 0-5-2.243-5-5 0-8.284-6.716-15-15-15s-15 6.716-15 15c0 19.299 15.701 35 35 35h10.061c8.247 0 14.92 6.678 14.914 14.927-.006 8.607-7.303 15.166-14.978 14.901l-59.6-.425c-25.325-.24-45.397 20.032-45.397 44.797 0 24.703 20.097 44.8 44.8 44.8h.25c8.271 0 15 6.729 15 15v10h-206c-19.299 0-35 15.701-35 35v145h512v-145c0-19.299-15.701-35-35-35zm-372.05 150c-25.364 0-46-20.636-46-46s20.636-46 46-46 46 20.636 46 46-20.636 46-46 46zm226-15c0 8.284-6.716 15-15 15h-120c-8.284 0-15-6.716-15-15v-60c0-8.284 6.716-15 15-15h120c8.284 0 15 6.716 15 15zm45 15c-8.284 0-15-6.716-15-15s6.716-15 15-15 15 6.716 15 15-6.716 15-15 15zm0-60c-8.284 0-15-6.716-15-15s6.716-15 15-15 15 6.716 15 15-6.716 15-15 15zm60 60c-8.284 0-15-6.716-15-15s6.716-15 15-15 15 6.716 15 15-6.716 15-15 15zm0-60c-8.284 0-15-6.716-15-15s6.716-15 15-15 15 6.716 15 15-6.716 15-15 15z"/><path d="m451 439c0 8.284-6.716 15-15 15s-15-6.716-15-15v-35h-30v35c0 8.284-6.716 15-15 15s-15-6.716-15-15v-35h-30v35c0 8.284-6.716 15-15 15s-15-6.716-15-15v-35h-30v35c0 8.284-6.716 15-15 15s-15-6.716-15-15v-35h-30v35c0 8.284-6.716 15-15 15s-15-6.716-15-15v-35h-30v35c0 8.284-6.716 15-15 15s-15-6.716-15-15v-35h-30v35c0 8.284-6.716 15-15 15s-15-6.716-15-15v-35h-61v93c0 8.284 6.716 15 15 15h482c8.284 0 15-6.716 15-15v-93h-61z"/><circle cx="104.95" cy="298" r="16"/><path d="m210.95 284h90v30h-90z"/></g></svg>