<?xml version="1.0" encoding="iso-8859-1"?>
<!-- Generator: Adobe Illustrator 19.0.0, SVG Export Plug-In . SVG Version: 6.00 Build 0)  -->
<svg version="1.1"  fill="#fff" id="Capa_1" xmlns="http://www.w3.org/2000/svg" xmlns:xlink="http://www.w3.org/1999/xlink" x="0px" y="0px"
	 viewBox="0 0 512 512" style="enable-background:new 0 0 512 512;" xml:space="preserve">
<g>
	<g>
		<path d="M492.884,121.571l-211,60C275.438,183.417,271,189.306,271,196c0,74.471,0,128.678,0,204.344
			c-8.86-5.167-19.023-8.344-30-8.344c-33.091,0-60,26.909-60,60s26.909,60,60,60s60-26.909,60-60V297.32l181-51.429v94.453
			c-8.86-5.167-19.023-8.344-30-8.344c-33.091,0-60,26.909-60,60s26.909,60,60,60s60-26.909,60-60c0-95.338,0-160.882,0-256
			C512,126.079,502.51,118.852,492.884,121.571z"/>
	</g>
</g>
<g>
	<g>
		<path d="M173.603,92.655C144.218,74.623,120,59.37,120,15c0-8.291-6.709-15-15-15S90,6.709,90,15c0,93.149,0,31.595,0,264.344
			C81.14,274.177,70.977,271,60,271c-33.091,0-60,26.909-60,60s26.909,60,60,60s60-26.909,60-60c0-51.702,0-85.906,0-143.148
			c9.814,7.861,21.896,14.328,32.479,20.468C183.886,226.527,211,242.26,211,286c0,8.291,6.709,15,15,15s15-6.709,15-15v-90
			C241,133.993,205.199,112.035,173.603,92.655z"/>
	</g>
</g>
<g>
</g>
<g>
</g>
<g>
</g>
<g>
</g>
<g>
</g>
<g>
</g>
<g>
</g>
<g>
</g>
<g>
</g>
<g>
</g>
<g>
</g>
<g>
</g>
<g>
</g>
<g>
</g>
<g>
</g>
</svg>
