<svg id="Capa_1"  fill="#fff" enable-background="new 0 0 512 512" height="512" viewBox="0 0 512 512" width="512" xmlns="http://www.w3.org/2000/svg"><g><path d="m2.831 6.23c-2.819 3.911-3.586 8.939-2.062 13.514l20 60c2.043 6.124 7.775 10.256 14.231 10.256h37v-90h-57c-4.821 0-9.349 2.318-12.169 6.23z"/><path d="m490.608 227.063-145.216-66.316c-18.429-8.416-40.189-.249-48.529 18.215-8.292 18.357-.182 39.962 18.14 48.33l145.216 66.316c18.429 8.416 40.189.249 48.529-18.215 8.292-18.357.183-39.962-18.14-48.33z"/><path d="m291.99 327.487v29.513c0 13.785-11.215 25-25 25h-29.99c-13.785 0-25-11.215-25-25v-35h20v5c0 8.284 6.716 15 15 15s15-6.716 15-15v-40c0-8.284-6.716-15-15-15s-15 6.716-15 15v5h-20v-60h20v5c0 8.284 6.716 15 15 15s15-6.716 15-15v-40c0-8.284-6.716-15-15-15s-15 6.716-15 15v5h-20v-60h20v5c0 8.284 6.716 15 15 15s15-6.716 15-15v-40c0-8.284-6.716-15-15-15s-15 6.716-15 15v5h-20v-7c0-57.897-47.102-105-105-105h-5v90h2.022c4.277 0 8.218 1.742 11.096 4.906 2.878 3.163 4.241 7.251 3.838 11.51l-22.366 235.957c-4.11 43.362 10.342 86.71 39.651 118.929 29.31 32.22 71.101 50.698 114.657 50.698h36.092c85.467 0 155-69.532 155-155v-21.884c0-5.442.526-10.848 1.534-16.152l-138.547-63.271c-8.547 22.89-12.987 47.235-12.987 71.794z"/></g></svg>